# xmcd
# Track frame offsets:
# 150
# 20435
# 38470
# 57097
# 71175
#
# Disc length: 1181 seconds
# Revision: 2
# Processed by: cddbd v1.5.1PL2 Copyright (c) Steve Scherf et al.
# Submitted via: VisiTrax 2.10.0.248 - For more info visit www.synapsa.com
#
DISCID=39049b05
DTITLE=Reba McEntire - If You See Him CD 2
DYEAR=1998
DGENRE=Country
TTITLE0=The Heart Is A Lonely Hunter
TTITLE1=And Still
TTITLE2=The Greatest Man I Never Knew
TTITLE3=The Fear Of Being Alone
TTITLE4=Sweet Dreams
EXTD=
EXTT0=
EXTT1=
EXTT2=
EXTT3=
EXTT4=
PLAYORDER=
